<?xml version="1.0" encoding="UTF-8"?>
<svg width="37px" height="37px" viewBox="0 0 37 37" version="1.1" xmlns="http://www.w3.org/2000/svg" xmlns:xlink="http://www.w3.org/1999/xlink">
    <!-- Generator: Sketch 53.1 (72631) - https://sketchapp.com -->
    <title>dribbble </title>
    <desc>Created with Sketch.</desc>
    <defs>
        <filter x="-6.9%" y="-6.9%" width="113.9%" height="113.9%" filterUnits="objectBoundingBox" id="filter-1">
            <feOffset dx="1" dy="1" in="SourceAlpha" result="shadowOffsetOuter1"></feOffset>
            <feColorMatrix values="0 0 0 0 0.532870961   0 0 0 0 0.0313700866   0 0 0 0 0.225701675  0 0 0 1 0" type="matrix" in="shadowOffsetOuter1" result="shadowMatrixOuter1"></feColorMatrix>
            <feMerge>
                <feMergeNode in="shadowMatrixOuter1"></feMergeNode>
                <feMergeNode in="SourceGraphic"></feMergeNode>
            </feMerge>
        </filter>
    </defs>
    <g id="Page-1" stroke="none" stroke-width="1" fill="none" fill-rule="evenodd">
        <g id="首页-" transform="translate(-907.000000, -465.000000)">
            <g id="电脑屏幕" transform="translate(605.000000, 341.000000)">
                <g id="分组-2" transform="translate(209.000000, 33.000000)">
                    <g id="Dribbble-" transform="translate(80.000000, 83.000000)">
                        <g id="dribbble--" transform="translate(11.000000, 5.000000)">
                            <g id="dribbble-" filter="url(#filter-1)" transform="translate(2.000000, 3.000000)">
                                <path d="M17.9694802,0.319134439 C8.13934244,0.319134439 0.170606049,8.2875641 0.170606049,18.1177019 C0.170606049,27.9477629 8.13934244,35.9161926 17.9694802,35.9161926 C27.7995413,35.9161926 35.7679709,27.9477629 35.7679709,18.1177019 C35.7679709,8.2875641 27.7995413,0.319134439 17.9694802,0.319134439 Z" id="路径" fill="#C32361"></path>
                                <path d="M23.9025149,32.1156334 C22.0255469,32.910912 20.0078658,33.3203988 17.9694802,33.3197854 C14.3539569,33.3197854 11.1252222,32.1617198 8.28166595,29.8439017 L8.62911629,30.0994092 C9.17034439,28.9099036 9.96623649,27.7665612 11.0164859,26.6693052 C12.0675787,25.5721259 13.0787965,24.6875883 14.052593,24.0153858 C15.0704821,23.3165742 16.1311604,22.681793 17.2281097,22.1151061 C18.3714521,21.5202 19.1514708,21.1413097 19.5680892,20.9801221 C19.9857044,20.8177844 20.3175881,20.690184 20.5646605,20.5970142 L20.6108236,20.5739327 L20.6578302,20.5739327 C22.1720113,24.544958 23.253394,28.3916804 23.9025149,32.1156334 Z" id="路径" fill="#F46899"></path>
                                <path d="M19.6150958,18.0485339 C19.5522158,18.0799739 19.452758,18.1134843 19.3138086,18.1533594 L19.012138,18.2339532 L18.1545928,18.5343202 C17.5683518,18.7509495 16.7988386,19.1217881 15.849274,19.6471428 C14.898559,20.172881 13.8914821,20.7989204 12.823289,21.5244176 C11.7586999,22.2502215 10.657303,23.2122855 9.52231902,24.4099194 C8.41225698,25.5727393 7.45072976,26.8685274 6.65989873,28.2679908 C5.42699063,26.8985104 4.45319415,25.3163116 3.78582263,23.5986907 C3.10495493,21.851777 2.75926829,19.9925227 2.76732,18.1177019 C2.76732,17.9008425 2.77544839,17.7387348 2.79009483,17.6309186 C8.38319415,17.6309186 13.5823733,16.9126297 18.3870187,15.4760517 C18.8821604,16.4330546 19.2916472,17.29152 19.6163227,18.0485339 L19.6150958,18.0485339 Z" id="路径" fill="#F46899"></path>
                                <path d="M17.1349399,13.1350753 C12.4381106,14.3704373 7.75715473,14.9883483 3.09084527,14.9883483 C3.57195395,12.6840263 4.58800273,10.5248652 6.05694088,8.68539512 C7.50341093,6.84500488 9.36090146,5.36885854 11.4801875,4.37497112 C13.3960338,6.92437171 15.2807467,9.8443042 17.1349399,13.1350753 Z" id="路径" fill="#F46899"></path>
                                <path d="M32.9861444,20.5278462 C32.6587083,22.5970583 31.9011577,24.5749411 30.7623395,26.3332806 C29.6471397,28.0739063 28.188017,29.5683032 26.4749971,30.7254486 C25.8414427,27.1719618 24.8520029,23.5483867 23.5076745,19.8556437 C26.5828133,19.3772956 29.7426866,19.6013631 32.9872946,20.5278462 L32.9861444,20.5278462 Z" id="路径" fill="#F46899"></path>
                                <path d="M14.3916849,3.27265405 C14.3560273,3.27265405 14.3207532,3.30753386 14.2850956,3.3785364 C14.3207532,3.30753386 14.3560273,3.27265405 14.3916849,3.27265405 Z" id="路径" fill="#F46899"></path>
                                <path d="M28.0055883,6.71502732 L27.7156501,7.12121678 C27.600319,7.28355454 27.3103809,7.59657424 26.8466792,8.05935571 C26.371015,8.53356293 25.8639108,8.97502654 25.3285873,9.38060254 C24.7798443,9.79729756 24.0345629,10.272655 23.0922064,10.8055247 C22.14985,11.3396213 21.1449202,11.8063136 20.0791042,12.2085922 C18.3022074,8.9325442 16.4019278,5.98109502 14.3782654,3.35531824 C15.5536613,3.06745054 16.7589635,2.91975922 17.9694802,2.91561834 C21.8011727,2.91561834 25.1464654,4.18234361 28.0047448,6.71617756 L28.0055883,6.71502732 Z" id="路径" fill="#F46899"></path>
                                <path d="M33.1736341,17.9553641 L32.9412082,17.909201 C32.7872289,17.877761 32.5934511,17.8433303 32.3621754,17.8046821 L31.516286,17.6653493 C31.1844023,17.6120546 30.8135637,17.5605237 30.4043836,17.514744 C29.9682111,17.465897 29.5318086,17.4236447 29.0944859,17.3879871 C28.0691584,17.303866 27.0407637,17.2613069 26.0121389,17.26008 C25.4709108,17.26008 24.9035339,17.2759534 24.3087044,17.3062431 C23.714105,17.3376831 23.1383696,17.3909778 22.5811914,17.4685809 C22.5140939,17.3457348 22.4562749,17.2179044 22.4083481,17.0863932 C22.3550535,16.9525048 22.3047495,16.8173895 22.2576661,16.6811239 C21.9644306,16.0320029 21.6244952,15.2980706 21.23809,14.4794804 C22.2879559,14.0544269 23.3060751,13.554761 24.2847026,12.9843934 C25.2510609,12.4200837 26.0238714,11.9183473 26.6025975,11.4777272 C27.1827805,11.0380273 27.7312168,10.5701081 28.2485198,10.0758866 C28.7658995,9.58158849 29.1019241,9.23835571 29.2568236,9.04457795 C29.4116464,8.85195044 29.5584176,8.66231356 29.6965235,8.47720098 L29.7205253,8.45411941 C31.9757701,11.2033557 33.127471,14.3704373 33.1736341,17.9553641 Z" id="路径" fill="#F46899"></path>
                            </g>
                        </g>
                    </g>
                </g>
            </g>
        </g>
    </g>
</svg>