<?xml version="1.0" encoding="UTF-8"?>
<svg width="37px" height="35px" viewBox="0 0 37 35" version="1.1" xmlns="http://www.w3.org/2000/svg" xmlns:xlink="http://www.w3.org/1999/xlink">
    <!-- Generator: Sketch 53.1 (72631) - https://sketchapp.com -->
    <title>Email me </title>
    <desc>Created with Sketch.</desc>
    <defs>
        <filter x="-6.9%" y="-7.4%" width="113.9%" height="114.7%" filterUnits="objectBoundingBox" id="filter-1">
            <feOffset dx="1" dy="1" in="SourceAlpha" result="shadowOffsetOuter1"></feOffset>
            <feColorMatrix values="0 0 0 0 0.347165928   0 0 0 0 0.488653274   0 0 0 0 0.0609756147  0 0 0 1 0" type="matrix" in="shadowOffsetOuter1" result="shadowMatrixOuter1"></feColorMatrix>
            <feMerge>
                <feMergeNode in="shadowMatrixOuter1"></feMergeNode>
                <feMergeNode in="SourceGraphic"></feMergeNode>
            </feMerge>
        </filter>
    </defs>
    <g id="Page-1" stroke="none" stroke-width="1" fill="none" fill-rule="evenodd">
        <g id="首页-" transform="translate(-827.000000, -533.000000)">
            <g id="电脑屏幕" transform="translate(605.000000, 341.000000)">
                <g id="分组-2" transform="translate(209.000000, 33.000000)">
                    <g id="Email-me-" transform="translate(0.000000, 151.000000)">
                        <g transform="translate(11.000000, 4.000000)" id="Email-me">
                            <g filter="url(#filter-1)" transform="translate(2.000000, 4.000000)">
                                <path d="M3.38427734,28.7228154 L35.9472534,28.7228154 L32.2352165,33.4494089 C31.9622216,33.7970175 31.5447116,34 31.1027185,34 L0.735175107,34 C0.411421978,34 0.148968211,33.7375462 0.148968211,33.4137931 L0.148968211,33.3268582 C0.148968211,33.0034537 0.257833642,32.6894641 0.458027275,32.4354702 L3.38427734,28.7228154 Z" id="矩形" fill="#92BE39"></path>
                                <path d="M5.52619886,19.9310345 L34.5054295,19.9310345 C35.3007195,19.9310345 35.9454295,20.5757444 35.9454295,21.3710345 L35.9454295,28.7241379 L3.38237447,28.7241379 L3.38237447,22.7475669 C3.38237447,22.5196337 3.43648227,22.2949563 3.54024796,22.0920124 L4.24407235,20.7154801 C4.49025378,20.234001 4.98543328,19.9310345 5.52619886,19.9310345 Z" id="矩形" fill="#92BE39"></path>
                                <path d="M9.67271461,-7.10542736e-15 L32.9124622,-7.32747196e-15 C33.7077523,-5.35448602e-15 34.3524622,0.64470996 34.3524622,1.44 L34.3524622,20.2496552 C34.3524622,21.0449452 33.7077523,21.6896552 32.9124622,21.6896552 L6.08516129,21.6896552 C5.28987125,21.6896552 4.64516129,21.0449452 4.64516129,20.2496552 L4.64516129,4.03560334 C4.64516129,3.57364038 4.86679743,3.13972429 5.24107365,2.86893455 L8.82862697,0.273331212 C9.0742089,0.0956521012 9.36959689,-7.27179014e-15 9.67271461,-7.32747196e-15 Z" id="矩形-copy-4" fill="#92BE39"></path>
                                <rect id="矩形-copy-3" fill="#FFFFFF" x="5.80645161" y="3.51724138" width="23.8064516" height="17.4490095" rx="1.44"></rect>
                                <rect id="矩形-copy-5" stroke="#92BE39" stroke-width="1.1664" x="8.5032" y="5.64702979" width="17.9948903" height="12.9025655" rx="1.44"></rect>
                                <rect id="矩形-copy-6" stroke="#92BE39" stroke-width="1.1664" x="15.7032" y="7.81724255" width="7.54327742" height="5.28187586" rx="1.44"></rect>
                                <rect id="矩形-copy-7" stroke="#92BE39" stroke-width="1.1664" fill="#FFFFFF" x="11.3832" y="10.7108596" width="7.54327742" height="5.28187586" rx="1.44"></rect>
                                <rect id="矩形" fill="#FFFFFF" x="4.64516129" y="22.862069" width="26.7096774" height="4.68965517" rx="0.5832"></rect>
                                <path d="M5.05176049,29.3103448 L30.0436984,29.3103448 C30.5961909,29.3103448 31.0440746,29.7582285 31.0440746,30.3107211 C31.0440746,30.5389131 30.9660598,30.7602472 30.8229726,30.9380044 L29.9450786,32.0286122 C29.6717324,32.3681903 29.2592718,32.565664 28.8233459,32.565664 L3.83140795,32.565664 C3.2789154,32.565664 2.8310317,32.1177803 2.8310317,31.5652877 C2.8310317,31.3370957 2.90904656,31.1157616 3.05213375,30.9380044 L3.9300277,29.8473966 C4.20337392,29.5078185 4.61583456,29.3103448 5.05176049,29.3103448 Z" id="矩形" fill="#FFFFFF"></path>
                                <rect id="矩形" fill="#92BE39" x="6.38709677" y="24.6206897" width="2.32258065" height="1.17241379" rx="0.5832"></rect>
                                <rect id="矩形-copy-8" fill="#92BE39" x="27.2903226" y="24.6206897" width="2.32258065" height="1.17241379" rx="0.5832"></rect>
                            </g>
                        </g>
                    </g>
                </g>
            </g>
        </g>
    </g>
</svg>