<?xml version="1.0" encoding="UTF-8"?>
<svg width="36px" height="36px" viewBox="0 0 36 36" version="1.1" xmlns="http://www.w3.org/2000/svg" xmlns:xlink="http://www.w3.org/1999/xlink">
    <!-- Generator: Sketch 53.1 (72631) - https://sketchapp.com -->
    <title>instagram</title>
    <desc>Created with Sketch.</desc>
    <defs>
        <linearGradient x1="50%" y1="-9.30819429%" x2="8.61186971%" y2="106.359516%" id="linearGradient-1">
            <stop stop-color="#6160FF" offset="0%"></stop>
            <stop stop-color="#AE00FF" offset="19.6830229%"></stop>
            <stop stop-color="#B10086" offset="47.8441642%"></stop>
            <stop stop-color="#EA4E00" offset="62.6650062%"></stop>
            <stop stop-color="#FFFC7E" offset="100%"></stop>
        </linearGradient>
        <path d="M24.0316666,18.4523571 C24.0316666,16.9122553 23.4869774,15.597276 22.3971223,14.5076101 C21.3075056,13.4178012 19.9925283,12.8730635 18.452381,12.8730635 C16.9122336,12.8730635 15.5972563,13.4178012 14.5076396,14.5076101 C13.4177845,15.597276 12.8730953,16.9122553 12.8730953,18.4523571 C12.8730953,19.9925066 13.4177845,21.3074859 14.5076396,22.3971518 C15.5972563,23.4869607 16.9122336,24.0316984 18.452381,24.0316984 C19.9925283,24.0316984 21.3075056,23.4869607 22.3971223,22.3971518 C23.4869774,21.3074859 24.0316666,19.9925066 24.0316666,18.4523571 Z M27.0393042,18.4523571 C27.0393042,20.8352147 26.2038917,22.8621764 24.533019,24.5330038 C22.8621462,26.2038789 20.8351874,27.0393403 18.452381,27.0393403 C16.0695268,27.0393403 14.0426157,26.2038789 12.3717429,24.5330038 C10.7008702,22.8621764 9.86545767,20.8352147 9.86545767,18.4523571 C9.86545767,16.0695472 10.7008702,14.0425855 12.3717429,12.3717581 C14.0426157,10.700883 16.0695268,9.8654216 18.452381,9.8654216 C20.8351874,9.8654216 22.8621462,10.700883 24.533019,12.3717581 C26.2038917,14.0425855 27.0393042,16.0695472 27.0393042,18.4523571 Z M29.3930765,9.51662934 C29.3930765,10.0688043 29.1969884,10.5410755 28.8047646,10.9332999 C28.4123977,11.3256674 27.9401271,11.5217558 27.3881437,11.5217558 C26.8359695,11.5217558 26.3636513,11.3256674 25.9714751,10.9332999 C25.5790605,10.5410755 25.3829724,10.0688043 25.3829724,9.51662934 C25.3829724,8.96464509 25.5790605,8.49232621 25.9714751,8.09995876 C26.3636513,7.70773433 26.8359695,7.51164596 27.3881437,7.51164596 C27.9401271,7.51164596 28.4123977,7.70773433 28.8047646,8.09995876 C29.1969884,8.49232621 29.3930765,8.96464509 29.3930765,9.51662934 Z M18.452381,4.72187998 C18.3506898,4.72187998 17.7949876,4.71816131 16.7850362,4.71091467 C15.7753231,4.70366803 15.0087536,4.70366803 14.485852,4.71091467 C13.962712,4.71816131 13.2617436,4.73994891 12.3825652,4.77646817 C11.5035299,4.81279672 10.7552676,4.88540615 10.1379214,4.99434414 C9.5203369,5.10328213 9.00096327,5.23777406 8.5795145,5.39753388 C7.85303981,5.68806696 7.21371538,6.10951633 6.66154121,6.66150058 C6.10951007,7.21367553 5.68810898,7.85300087 5.39757631,8.57952428 C5.23776904,9.00092597 5.10332498,9.52034801 4.99438714,10.1378858 C4.88544931,10.7552328 4.81279231,11.5035438 4.7764638,12.3825327 C4.73999228,13.2617123 4.71820471,13.9627295 4.71091041,14.4858225 C4.70366377,15.0087725 4.70366377,15.7752955 4.71091041,16.7850576 C4.71820471,17.7949628 4.72192338,18.3507134 4.72192338,18.4523571 C4.72192338,18.5540485 4.71820471,19.1097991 4.71091041,20.1197043 C4.70366377,21.1294664 4.70366377,21.8957987 4.71091041,22.4189394 C4.71820471,22.9420324 4.73999228,23.6430019 4.7764638,24.5220385 C4.81279231,25.4012181 4.88544931,26.1495291 4.99438714,26.7668761 C5.10332498,27.3844139 5.23776904,27.9038359 5.39757631,28.3252376 C5.68810898,29.051761 6.10951007,29.6910864 6.66154121,30.2430706 C7.21371538,30.7952456 7.85303981,31.2166949 8.5795145,31.507228 C9.00096327,31.6669878 9.5203369,31.8014321 10.1379214,31.9104178 C10.7552676,32.0193558 11.5035299,32.0919652 12.3825652,32.1282937 C13.2617436,32.1646223 13.962712,32.1864099 14.485852,32.1936565 C15.0087536,32.2009032 15.7753231,32.2009032 16.7850362,32.1936565 C17.7949876,32.1864099 18.3506898,32.1828342 18.452381,32.1828342 C18.5540722,32.1828342 19.1097743,32.1864099 20.1197257,32.1936565 C21.1294388,32.2009032 21.8957699,32.2009032 22.4189099,32.1936565 C22.9420499,32.1864099 23.6430183,32.1646223 24.522006,32.1282937 C25.401232,32.0919652 26.1494943,32.0193558 26.7668405,31.9104178 C27.384425,31.8014321 27.9037986,31.6669878 28.3252474,31.507228 C29.0517221,31.2166949 29.6910465,30.7952456 30.24303,30.2430706 C30.7952042,29.6910864 31.2166529,29.051761 31.5071856,28.3252376 C31.6669929,27.9038359 31.8014369,27.3844139 31.9103748,26.7668761 C32.0193126,26.1495291 32.0919696,25.4012181 32.1282504,24.5220385 C32.1645789,23.6430019 32.1863665,22.9420324 32.1936131,22.4189394 C32.2009074,21.8957987 32.2009074,21.1294664 32.1936131,20.1197043 C32.1863665,19.1097991 32.1828385,18.5540485 32.1828385,18.4523571 C32.1828385,18.3507134 32.1863665,17.7949628 32.1936131,16.7850576 C32.2009074,15.7752955 32.2009074,15.0087725 32.1936131,14.4858225 C32.1863665,13.9627295 32.1645789,13.2617123 32.1282504,12.3825327 C32.0919696,11.5035438 32.0193126,10.7552328 31.9103748,10.1378858 C31.8014369,9.52034801 31.6669929,9.00092597 31.5071856,8.57952428 C31.2166529,7.85300087 30.7952042,7.21367553 30.24303,6.66150058 C29.6910465,6.10951633 29.0517221,5.68806696 28.3252474,5.39753388 C27.9037986,5.23777406 27.384425,5.10328213 26.7668405,4.99434414 C26.1494943,4.88540615 25.401232,4.81279672 24.522006,4.77646817 C23.6430183,4.73994891 22.9420499,4.71816131 22.4189099,4.71091467 C21.8957699,4.70366803 21.1294388,4.70366803 20.1197257,4.71091467 C19.1097743,4.71816131 18.5540722,4.72187998 18.452381,4.72187998 Z M35.1904762,18.4523571 C35.1904762,21.7796141 35.1541477,24.0825202 35.0815384,25.3612186 C34.936272,28.3833538 34.0352584,30.7226361 32.3789266,32.3789703 C30.7225948,34.0353045 28.3833635,34.9362717 25.3611849,35.0815382 C24.082536,35.1541953 21.7795855,35.1904762 18.452381,35.1904762 C15.1251764,35.1904762 12.8222259,35.1541953 11.543577,35.0815382 C8.52139843,34.9362717 6.18216707,34.0353045 4.52583528,32.3789703 C2.86945581,30.7226361 1.96848988,28.3833538 1.82322355,25.3612186 C1.75061422,24.0825202 1.71428571,21.7796141 1.71428571,18.4523571 C1.71428571,15.1251478 1.75061422,12.8222417 1.82322355,11.5435434 C1.96848988,8.52140813 2.86945581,6.18212576 4.52583528,4.52579161 C6.18216707,2.86945745 8.52139843,1.96849024 11.543577,1.8232237 C12.8222259,1.75056659 15.1251764,1.71428571 18.452381,1.71428571 C21.7795855,1.71428571 24.082536,1.75056659 25.3611849,1.8232237 C28.3833635,1.96849024 30.7225948,2.86945745 32.3789266,4.52579161 C34.0352584,6.18212576 34.936272,8.52140813 35.0815384,11.5435434 C35.1541477,12.8222417 35.1904762,15.1251478 35.1904762,18.4523571 Z" id="path-2"></path>
        <filter x="-1.5%" y="-1.5%" width="106.0%" height="106.0%" filterUnits="objectBoundingBox" id="filter-3">
            <feOffset dx="1" dy="1" in="SourceAlpha" result="shadowOffsetOuter1"></feOffset>
            <feColorMatrix values="0 0 0 0 0.44371949   0 0 0 0 0.228625157   0 0 0 0 0.506404124  0 0 0 1 0" type="matrix" in="shadowOffsetOuter1"></feColorMatrix>
        </filter>
    </defs>
    <g id="Page-1" stroke="none" stroke-width="1" fill="none" fill-rule="evenodd">
        <g id="首页-" transform="translate(-988.000000, -467.000000)">
            <g id="电脑屏幕" transform="translate(605.000000, 341.000000)">
                <g id="分组-2" transform="translate(209.000000, 33.000000)">
                    <g id="instagram" transform="translate(160.000000, 83.000000)">
                        <g transform="translate(13.000000, 9.000000)">
                            <g>
                                <use fill="black" fill-opacity="1" filter="url(#filter-3)" xlink:href="#path-2"></use>
                                <use fill="url(#linearGradient-1)" fill-rule="evenodd" xlink:href="#path-2"></use>
                            </g>
                        </g>
                    </g>
                </g>
            </g>
        </g>
    </g>
</svg>