<?xml version="1.0" encoding="UTF-8"?>
<svg width="42px" height="34px" viewBox="0 0 42 34" version="1.1" xmlns="http://www.w3.org/2000/svg" xmlns:xlink="http://www.w3.org/1999/xlink">
    <!-- Generator: Sketch 53.1 (72631) - https://sketchapp.com -->
    <title>weibo</title>
    <desc>Created with Sketch.</desc>
    <defs>
        <filter x="-6.1%" y="-7.6%" width="112.2%" height="115.2%" filterUnits="objectBoundingBox" id="filter-1">
            <feOffset dx="1" dy="1" in="SourceAlpha" result="shadowOffsetOuter1"></feOffset>
            <feColorMatrix values="0 0 0 0 0.514907526   0 0 0 0 0.0195040729   0 0 0 0 0.0195040729  0 0 0 1 0" type="matrix" in="shadowOffsetOuter1" result="shadowMatrixOuter1"></feColorMatrix>
            <feMerge>
                <feMergeNode in="shadowMatrixOuter1"></feMergeNode>
                <feMergeNode in="SourceGraphic"></feMergeNode>
            </feMerge>
        </filter>
        <polygon id="path-2" points="0.00375 0.0367072116 41 0.0367072116 41 32.9385406 0.00375 32.9385406"></polygon>
    </defs>
    <g id="Page-1" stroke="none" stroke-width="1" fill="none" fill-rule="evenodd">
        <g id="首页-" transform="translate(-825.000000, -466.000000)">
            <g id="电脑屏幕" transform="translate(605.000000, 341.000000)">
                <g id="分组-2" transform="translate(209.000000, 33.000000)">
                    <g id="Weibo" transform="translate(0.000000, 83.000000)">
                        <g id="weibo" transform="translate(11.000000, 5.000000)">
                            <g filter="url(#filter-1)" transform="translate(0.000000, 4.000000)">
                                <path d="M26.6675,17.4803955 C25.447,16.3654757 23.865,15.5398601 21.8989375,15.0045336 C19.933125,14.4918022 17.8535,14.3356679 15.6164375,14.5586026 C12.2265625,14.9157537 9.401625,15.9638731 7.1665,17.7704384 C4.9289375,19.5549627 3.912125,21.5630989 4.1379375,23.7705896 C4.2739375,25.2205578 4.9514375,26.5142071 6.172125,27.6296194 C7.3925625,28.745278 8.974625,29.5702164 10.9404375,30.1057892 C12.9065,30.6411157 14.9860625,30.7952799 17.223375,30.5735765 C20.6135,30.2169179 23.4385,29.1687985 25.6735625,27.3617407 C27.9084375,25.5546213 28.9275,23.5474086 28.6999375,21.3394254 C28.5659375,19.8894571 27.8879375,18.5961157 26.6675,17.4803955 Z" id="Fill-1" fill="#FFFFFF"></path>
                                <g id="分组">
                                    <mask id="mask-3" fill="white">
                                        <use xlink:href="#path-2"></use>
                                    </mask>
                                    <g id="Clip-3"></g>
                                    <path d="M21.4919375,20.6701287 C20.7690625,19.3096175 19.5715625,18.4171399 17.8764375,17.9715168 C16.272,17.5475037 14.667,17.7035765 13.0625,18.3950373 C11.4805,19.0866828 10.327875,20.1350485 9.605,21.5405037 C8.8815625,22.9688004 8.8364375,24.3730858 9.4465625,25.7763862 C10.056875,27.1592463 11.187,28.1183396 12.8139375,28.6329795 C14.5090625,29.1904701 16.2265625,29.101444 17.9440625,28.3650392 C19.661625,27.651291 20.8820625,26.5134683 21.5600625,24.975028 C22.2605,23.458444 22.2380625,22.0311325 21.4919375,20.6701287 Z M13.4156381,27.4427208 C14.7634759,27.4427208 15.8561143,26.3563529 15.8561143,25.0162502 C15.8561143,23.6761475 14.7634759,22.5897796 13.4156381,22.5897796 C12.0678003,22.5897796 10.9751619,23.6761475 10.9751619,25.0162502 C10.9751619,26.3563529 12.0678003,27.4427208 13.4156381,27.4427208 Z M16.8323048,22.5897796 C17.3714399,22.5897796 17.8084952,22.1552325 17.8084952,21.6191914 C17.8084952,21.0831503 17.3714399,20.6486032 16.8323048,20.6486032 C16.2931696,20.6486032 15.8561143,21.0831503 15.8561143,21.6191914 C15.8561143,22.1552325 16.2931696,22.5897796 16.8323048,22.5897796 Z" id="Fill-2" fill="#040000" mask="url(#mask-3)"></path>
                                    <path d="M34.9614375,18.774291 C34.441875,17.9715168 33.8315625,17.3690821 33.131125,16.9229664 C32.3996875,16.4643526 31.609375,16.1043078 30.781,15.8520056 C30.6005625,15.7851437 30.464625,15.7409384 30.397,15.718528 C30.30325,15.6641642 30.212375,15.6045672 30.1255,15.5398601 C30.0129375,15.4506493 29.9675,15.3616231 30.0129375,15.2503097 C30.0749375,15.1086437 30.1130625,14.9578657 30.1255,14.8039478 C30.8034375,13.0639366 30.8034375,11.7260821 30.1255,10.7652649 C29.4255625,9.8506847 28.25,9.38215858 26.6255,9.38215858 C25.001,9.38215858 23.1225625,9.82827425 20.9980625,10.7203209 L20.8625625,10.7652649 C20.76125,10.8083004 20.655,10.8381604 20.545875,10.8542295 C20.43775,10.8951716 20.3195625,10.9028675 20.207,10.8766399 C20.109375,10.8662966 20.0239375,10.8073769 19.9809375,10.7203209 C19.9360625,10.6312948 19.9360625,10.4740522 20.0034375,10.2746362 C20.703625,8.08881716 20.545875,6.50487873 19.5534375,5.54627799 C18.4465625,4.4306194 16.548125,4.38635261 13.9265,5.39014366 C11.277125,6.41708396 8.6784375,8.20160821 6.100125,10.7445784 C4.1565,12.6851754 2.6420625,14.6257108 1.5800625,16.5884104 C0.5180625,18.5513563 0,20.402681 0,22.1421996 C0,23.7705896 0.4970625,25.2650709 1.4914375,26.6707724 C2.4858125,28.0533862 3.796625,29.1909627 5.4240625,30.0829478 C7.0285625,30.9754254 8.8815625,31.6670709 10.9155,32.1798022 C12.96975,32.6913638 15.0810625,32.9460672 17.1999375,32.9383713 C19.3469375,32.9159608 21.426,32.6921026 23.3920625,32.2245616 C25.381125,31.756097 27.098375,31.1317444 28.567375,30.3530429 C29.9614375,29.6279049 31.25925,28.7364123 32.431875,27.6986362 C33.5170625,26.7169478 34.353,25.6683974 34.918,24.5957743 C35.4829375,23.5027108 35.753875,22.4541604 35.753875,21.4282052 C35.756125,20.4866586 35.4809375,19.5648134 34.9614375,18.774291 Z M25.673125,27.3617407 C23.4360625,29.1687985 20.6110625,30.2185802 17.222875,30.5735765 C14.985625,30.7967575 12.9065,30.6406231 10.9399375,30.1057892 C8.973375,29.5706474 7.389875,28.7447854 6.171375,27.6296194 C4.952875,26.5146996 4.2715,25.2205578 4.1374375,23.7705896 C3.911625,21.5626063 4.9284375,19.5549627 7.166,17.7704384 C9.4035625,15.9638731 12.2285,14.9138451 15.6159375,14.5586026 C17.853,14.3356679 19.932625,14.4918022 21.8984375,15.0045336 C23.8645,15.5398601 25.4485,16.3654757 26.667,17.4803955 C27.8855,18.5956231 28.566875,19.8894571 28.7009375,21.3394254 C28.9275,23.5474086 27.910375,25.5551138 25.673125,27.3617407 Z" id="Fill-4" fill="#CD281E" mask="url(#mask-3)"></path>
                                    <path d="M34.057625,7.30956157 C34.6904375,8.02337127 35.120125,8.84824813 35.3005625,9.76288993 C35.4809375,10.6774701 35.4360625,11.5695168 35.1425625,12.4172351 C35.0295625,12.7743862 34.8034375,13.0194235 34.464625,13.1979067 C34.1255,13.3539795 33.786625,13.3987388 33.4475,13.2871175 C33.10325,13.1875634 32.82175,12.9424646 32.6789375,12.6180672 C32.521,12.2837575 32.4755625,11.9487705 32.588375,11.6142146 C32.8825625,10.654875 32.7014375,9.82999813 32.045875,9.09408582 C31.368625,8.37978358 30.5551875,8.11208955 29.6055,8.29081903 C29.24875,8.3658694 28.8766875,8.30257836 28.5659375,8.11430597 C28.2495,7.91347388 28.045875,7.64602612 28.001,7.26677239 C27.933125,6.90962127 27.9785,6.57728172 28.181875,6.26291978 C28.3855,5.9486194 28.6565,5.7496959 29.0180625,5.68308022 C30.8730625,5.29206716 32.798125,5.91395709 34.057625,7.31153172 L34.057625,7.30956157 Z" id="Fill-5" fill="#DA761E" mask="url(#mask-3)"></path>
                                    <path d="M38.193625,3.60666604 C39.51,5.01932463 40.401875,6.7646306 40.7695,8.64772388 C41.1540625,10.5656642 41.0635,12.3727836 40.453625,14.1148881 C40.3235,14.5043004 40.0490625,14.8310989 39.6850625,15.0295299 C39.301,15.2301157 38.9165,15.2527108 38.485125,15.1187407 C38.0861875,14.9944366 37.7583125,14.7113507 37.5810625,14.338069 C37.3779375,13.9588153 37.355,13.5795616 37.468,13.156041 C37.8974375,11.929069 37.968,10.6130709 37.6940625,9.2525597 C37.4343125,7.91778358 36.8000625,6.68139179 35.8635,5.68381903 C34.9135625,4.63502239 33.7844375,3.92145896 32.473375,3.52004104 C31.1945625,3.11985448 29.8325,3.05083769 28.5185625,3.31902425 C28.10525,3.41352985 27.670625,3.33250746 27.3210625,3.09584328 C26.9595,2.87340112 26.733375,2.53835261 26.6430625,2.11483209 C26.5525,1.6910653 26.620625,1.31131903 26.868875,0.954906716 C27.089875,0.602373134 27.451875,0.358259328 27.8655,0.282962687 C29.7409375,-0.118393657 31.5945,-0.0291828358 33.4475,0.550902985 C35.2780625,1.13074254 36.860125,2.13459515 38.193625,3.6046959 L38.193625,3.60666604 Z" id="Fill-6" fill="#DA761E" mask="url(#mask-3)"></path>
                                </g>
                            </g>
                        </g>
                    </g>
                </g>
            </g>
        </g>
    </g>
</svg>