<?xml version="1.0" encoding="UTF-8"?>
<svg width="47px" height="14px" viewBox="0 0 47 14" version="1.1" xmlns="http://www.w3.org/2000/svg" xmlns:xlink="http://www.w3.org/1999/xlink">
    <!-- Generator: Sketch 53.1 (72631) - https://sketchapp.com -->
    <title>zhanku</title>
    <desc>Created with Sketch.</desc>
    <defs>
        <path d="M48.5204967,24.8167033 C48.1456918,25.0491421 47.7555132,25.4189989 47.3641003,25.4297994 C46.0867339,25.4643837 44.8063377,25.3624691 43.530318,25.3135225 C43.530318,23.2300758 43.5119144,21.2422244 43.5399687,19.2557517 C43.5505171,18.5197146 43.8879536,17.9407433 44.5437499,17.5515835 C45.038627,17.2585934 45.3704527,16.8146273 45.3761758,16.1383373 C44.5547472,16.7625785 44.555196,16.760855 43.4960918,16.5619665 C43.2194768,16.5103772 42.9425252,16.452009 42.6627682,16.4313273 C41.226727,16.3263105 40.4565816,16.9596287 40.2505511,18.4214768 C40.1791811,18.9286369 40.1440572,19.4416567 40.092774,19.9519191 C38.9455794,17.7997633 37.2583965,16.557945 34.8838843,16.4232845 C32.5216038,16.2895431 30.6350113,17.1364568 29.5351723,19.4699217 C29.4719941,19.4236177 29.4084793,19.3778883 29.3449644,19.3316993 C29.5377533,18.5408559 29.7306543,17.7495529 29.9235554,16.9587095 C29.2155782,17.5548007 29.0564545,17.6082283 28.246472,17.1454188 C26.9769609,16.4206418 25.6540344,16.2433541 24.2425687,16.551166 C20.7567714,17.3114466 18.6737991,20.9837037 19.6955351,24.5873667 C20.6652023,28.0073077 24.3179786,29.8192503 27.6249019,28.5095272 C28.7075718,28.0804978 29.6307812,27.5060075 29.4010729,26.0002683 C30.7200718,28.1083031 32.5672762,29.0274877 34.9093576,28.9108661 C37.2983458,28.7914871 38.9206672,27.4561417 40.0445207,25.3135225 C40.1454038,26.1213708 40.144506,26.853846 40.1458527,27.5867808 C40.147087,28.6154632 40.4245997,28.9395907 41.4231068,28.9457952 C43.299712,28.9584339 45.1763172,28.9552168 47.0520247,28.918909 C48.2096555,28.8969635 48.6515662,28.4570188 48.7733216,27.2731091 C48.8698283,26.3368047 48.9229069,25.3956746 49,24.387559 C48.8448039,24.5294581 48.7010539,24.7044479 48.5204967,24.8167033 Z M25.6299078,25.3328254 C24.2170955,25.3363872 23.0086304,24.1353577 22.99191,22.7103919 C22.9744042,21.2449819 24.1772584,20.0048871 25.6176761,20.0030487 C27.0580938,20.0013252 28.2872068,21.2521056 28.2644267,22.6964892 C28.2424322,24.1160549 27.0304884,25.328804 25.6299078,25.3328254 Z M34.5274831,25.3328254 C33.0893098,25.353507 31.8650221,24.1245573 31.8676031,22.6628241 C31.8698474,21.2229215 33.0410564,20.0251091 34.4653149,20.0058063 C35.9060692,19.9860438 37.1321523,21.2117764 37.1317035,22.6717861 C37.1317035,24.0953732 35.9407442,25.3126033 34.5274831,25.3328254 Z M20.125214,27.7842906 C19.2103087,28.6818743 18.0851086,29.0446075 16.8436517,28.9956609 C15.1249358,28.9287902 13.6665634,28.240321 12.4891824,26.946339 C12.3620406,26.8067378 12.2309711,26.6708134 12.0946274,26.5410935 C12.0661243,26.5136328 12.0069859,26.5194926 11.8320396,26.4836444 C11.8115038,26.8578675 11.7825519,27.21566 11.7733501,27.5742569 C11.75057,28.4381755 11.3818249,28.9009849 10.5424416,28.9108661 C8.07939018,28.9395907 5.61588993,28.9341905 3.15272633,28.9139684 C2.4233157,28.9081086 2.11909536,28.531128 2.0376258,27.8004912 C1.87760433,26.3754105 2.21515313,25.2017267 3.29782294,24.1802829 C4.60503901,22.9468521 5.77624805,21.5631347 7.15270203,20.0874988 C5.73685988,20.0874988 4.50337039,20.0901414 3.26976869,20.0870392 C2.24500285,20.083822 1.96131823,19.8190969 2.02797514,18.7584728 C2.06915878,18.0965451 2.21425539,17.4335832 2.38482526,16.7908434 C2.4549609,16.5251991 2.7127234,16.3110291 2.76524096,16.2388731 C3.14969647,16.463269 3.40398024,16.738335 3.66129387,16.7415521 C6.26068893,16.7738385 8.86008399,16.7611997 11.4870844,16.7611997 C11.4870844,17.545379 11.6163585,18.4519248 11.4463497,19.2952766 C11.3086594,19.9792648 10.906698,20.6714108 10.4539023,21.2117764 C9.2523947,22.647083 7.95920575,24.002076 6.61181599,25.4894315 L11.4068493,25.4894315 C11.3638702,25.1708191 11.3463643,24.8732331 11.281054,24.5873667 C10.4179929,20.8096331 12.2735013,17.4677079 15.7911683,16.6584808 C16.6297661,16.4659117 17.5603818,16.5695497 18.4305126,16.6836435 C19.2507068,16.791303 20.0537318,17.1202562 20.5271754,16 C21.0965646,18.1300953 19.58949,20.1310451 17.6130116,20.0152279 C16.2186029,19.9330758 15.3700178,20.416452 14.8855769,21.5685349 C14.4201007,22.6771863 14.6493601,23.964849 15.4427344,24.6936474 C16.2572055,25.4423233 17.7116504,25.5841075 18.7469646,25.0119151 C18.9428955,24.903796 19.1305224,24.7794763 19.4326106,24.6676805 C18.988119,25.6461524 19.4913001,26.163998 20.1536049,26.6397909 C20.6704765,27.010567 20.4854307,27.4306343 20.125214,27.7842906 Z" id="path-1"></path>
        <filter x="-1.1%" y="-3.8%" width="104.1%" height="115.4%" filterUnits="objectBoundingBox" id="filter-2">
            <feOffset dx="1" dy="1" in="SourceAlpha" result="shadowOffsetOuter1"></feOffset>
            <feColorMatrix values="0 0 0 0 0.551923895   0 0 0 0 0.452361153   0 0 0 0 0  0 0 0 1 0" type="matrix" in="shadowOffsetOuter1"></feColorMatrix>
        </filter>
    </defs>
    <g id="Page-1" stroke="none" stroke-width="1" fill="none" fill-rule="evenodd">
        <g id="首页-" transform="translate(-903.000000, -406.000000)">
            <g id="电脑屏幕" transform="translate(605.000000, 341.000000)">
                <g id="分组-2" transform="translate(209.000000, 33.000000)">
                    <g id="站酷" transform="translate(80.000000, 15.000000)">
                        <g id="zhanku" transform="translate(7.000000, 1.000000)">
                            <g>
                                <use fill="black" fill-opacity="1" filter="url(#filter-2)" xlink:href="#path-1"></use>
                                <use fill="#FFD100" fill-rule="evenodd" xlink:href="#path-1"></use>
                            </g>
                        </g>
                    </g>
                </g>
            </g>
        </g>
    </g>
</svg>